<svg width="41" height="40" viewBox="0 0 41 40" fill="none" xmlns="http://www.w3.org/2000/svg">
<path fill-rule="evenodd" clip-rule="evenodd" d="M30.7274 17.659C30.7274 19.3413 30.3961 21.007 29.7523 22.5612C29.1085 24.1154 28.165 25.5276 26.9754 26.7171C25.7859 27.9067 24.3737 28.8502 22.8195 29.494C21.2653 30.1378 19.5996 30.4691 17.9173 30.4691C16.2351 30.4691 14.5693 30.1378 13.0151 29.494C11.4609 28.8502 10.0487 27.9067 8.85921 26.7171C7.66968 25.5276 6.7261 24.1154 6.08233 22.5612C5.43856 21.007 5.10722 19.3413 5.10722 17.659C5.10722 14.2616 6.45685 11.0033 8.85921 8.60091C11.2616 6.19855 14.5199 4.84892 17.9173 4.84892C21.3148 4.84892 24.5731 6.19855 26.9754 8.60091C29.3778 11.0033 30.7274 14.2616 30.7274 17.659ZM28.3931 31.1523C24.9611 33.8168 20.6426 35.0731 16.3169 34.6655C11.9912 34.258 7.98336 32.2172 5.10935 28.9587C2.23535 25.7001 0.711221 21.4687 0.847248 17.126C0.983274 12.7832 2.76923 8.65553 5.84153 5.58323C8.91383 2.51093 13.0415 0.724974 17.3843 0.588947C21.727 0.45292 25.9584 1.97705 29.217 4.85105C32.4755 7.72506 34.5163 11.7329 34.9238 16.0586C35.3314 20.3843 34.0751 24.7028 31.4106 28.1348L39.3529 36.0771C39.5627 36.2726 39.7309 36.5083 39.8476 36.7702C39.9643 37.0321 40.027 37.3148 40.0321 37.6014C40.0371 37.8881 39.9844 38.1729 39.877 38.4387C39.7696 38.7046 39.6098 38.946 39.4071 39.1488C39.2043 39.3515 38.9629 39.5113 38.697 39.6187C38.4312 39.7261 38.1464 39.7788 37.8597 39.7738C37.5731 39.7687 37.2904 39.706 37.0285 39.5893C36.7666 39.4726 36.5309 39.3044 36.3354 39.0946L28.3931 31.1523Z" fill="#6D6464"/>
</svg>
