<svg width="44" height="45" viewBox="0 0 44 45" fill="none" xmlns="http://www.w3.org/2000/svg">
<path d="M0.0644531 44.129V30.8287C0.0644531 30.0805 0.28038 29.3696 0.712235 28.6962C1.14409 28.0228 1.74469 27.4803 2.51405 27.0688L5.508 25.4413C5.82554 28.584 6.32453 31.259 7.00498 33.4663C7.68542 35.6737 8.75145 38.1242 10.2031 40.8179L0.0644531 44.129ZM14.2857 39.6394C12.698 37.1702 11.5186 34.5513 10.7474 31.7828C9.97625 29.0142 9.59066 26.1522 9.59066 23.1966C9.59066 18.52 10.7138 14.115 12.9602 9.98163C15.2066 5.84828 18.1661 2.71459 21.8386 0.580566C25.513 2.71309 28.4734 5.84678 30.7198 9.98163C32.9662 14.1165 34.0884 18.5215 34.0866 23.1966C34.0866 26.1147 33.701 28.9491 32.9299 31.6997C32.1587 34.4503 30.9793 37.0969 29.3916 39.6394H14.2857ZM21.8386 23.9261C23.3356 23.9261 24.6176 23.4869 25.6845 22.6084C26.7514 21.73 27.284 20.6727 27.2822 19.4366C27.2804 18.2005 26.7478 17.1439 25.6845 16.267C24.6212 15.39 23.3392 14.95 21.8386 14.947C20.338 14.9441 19.057 15.384 17.9955 16.267C16.934 17.1499 16.4005 18.2064 16.3951 19.4366C16.3897 20.6667 16.9231 21.724 17.9955 22.6084C19.0679 23.4929 20.3489 23.9321 21.8386 23.9261ZM43.6128 44.129L33.4742 40.8179C34.9258 38.1242 35.9919 35.6737 36.6723 33.4663C37.3528 31.259 37.8517 28.584 38.1693 25.4413L41.1632 27.0688C41.9344 27.4803 42.5359 28.0228 42.9678 28.6962C43.3996 29.3696 43.6146 30.0805 43.6128 30.8287V44.129Z" fill="black"/>
</svg>
