<svg width="44" height="45" viewBox="0 0 44 45" fill="none" xmlns="http://www.w3.org/2000/svg">
<path d="M31.135 22.7097C36.8459 22.7097 41.4809 17.8323 41.4809 11.8226C41.4809 5.81297 36.8459 0.935547 31.135 0.935547C25.4241 0.935547 20.7892 5.81297 20.7892 11.8226C20.7892 17.8323 25.4241 22.7097 31.135 22.7097ZM42.412 34.9033C41.605 34.0323 40.5911 33.5968 39.4117 33.5968H24.9275L20.6237 32.0073L21.3065 29.9605L24.9275 31.4194H30.7212C31.4454 31.4194 32.0248 31.1146 32.5007 30.6138C32.9766 30.113 33.2042 29.5033 33.2042 28.8283C33.2042 27.6525 32.6662 26.8468 31.5903 26.3896L16.5474 20.5323H12.5125V40.1291L26.9967 44.4839L43.6121 37.9517C43.6328 36.7976 43.219 35.7743 42.412 34.9033ZM8.37422 20.5323H0.0644531V44.4839H8.37422V20.5323Z" fill="black"/>
</svg>
