<svg width="51" height="51" viewBox="0 0 51 51" fill="none" xmlns="http://www.w3.org/2000/svg">
<path d="M4.06445 16.9703C4.30282 12.157 5.01564 9.15448 7.1518 7.0229C9.28338 4.88674 12.2859 4.17392 17.0992 3.93555M47.6128 16.9703C47.3745 12.157 46.6617 9.15448 44.5255 7.0229C42.3939 4.88674 39.3914 4.17392 34.5781 3.93555M34.5781 47.4839C39.3914 47.2456 42.3939 46.5327 44.5255 44.3966C46.6617 42.265 47.3745 39.2625 47.6128 34.4492M17.0992 47.4839C12.2859 47.2456 9.28338 46.5327 7.1518 44.3966C5.01564 42.265 4.30282 39.2625 4.06445 34.4492M43.3382 24.1466C43.8952 24.8434 44.1748 25.194 44.1748 25.7097C44.1748 26.2254 43.8952 26.5761 43.3382 27.2729C40.833 30.4084 34.436 37.1698 25.8386 37.1698C17.2413 37.1698 10.8442 30.4084 8.33907 27.2729C7.78211 26.5761 7.50248 26.2254 7.50248 25.7097C7.50248 25.194 7.78211 24.8434 8.33907 24.1466C10.8442 21.0111 17.2413 14.2496 25.8386 14.2496C34.436 14.2496 40.833 21.0111 43.3382 24.1466Z" stroke="black" stroke-width="6.53226" stroke-linecap="round" stroke-linejoin="round"/>
<path d="M30.4227 25.7095C30.4227 24.4938 29.9398 23.3278 29.0801 22.4681C28.2204 21.6084 27.0544 21.1255 25.8387 21.1255C24.6229 21.1255 23.4569 21.6084 22.5973 22.4681C21.7376 23.3278 21.2546 24.4938 21.2546 25.7095C21.2546 26.9253 21.7376 28.0913 22.5973 28.9509C23.4569 29.8106 24.6229 30.2936 25.8387 30.2936C27.0544 30.2936 28.2204 29.8106 29.0801 28.9509C29.9398 28.0913 30.4227 26.9253 30.4227 25.7095Z" stroke="black" stroke-width="6.53226" stroke-linecap="round" stroke-linejoin="round"/>
</svg>
